<svg width="71" height="46" viewBox="0 0 71 46" fill="none" xmlns="http://www.w3.org/2000/svg">
<path d="M8.21285 45.9429C7.15804 45.9429 6.09167 45.7366 5.0735 45.3123C1.99199 44.0279 1.39881e-06 41.0232 1.39881e-06 37.6585V8.28464C-0.00192695 4.91796 1.99006 1.91519 5.0735 0.630788C8.15693 -0.653612 11.6685 0.0586461 14.021 2.44646L25.2595 13.8543L19.3799 19.7547L8.29191 8.49871V37.4444L29.7448 15.6875C31.2952 14.115 33.3605 13.2471 35.5607 13.2471H35.5704C37.7726 13.249 39.8398 14.1209 41.3901 15.6991L62.7081 37.4113V8.53179L51.379 20.0817L45.486 14.1948L56.9655 2.49317C59.3142 0.0975675 62.8296 -0.620529 65.9169 0.659979C69.0061 1.94243 71 4.94715 71 8.31773V37.6273C71 40.996 69.0042 44.0026 65.9169 45.2851C62.8296 46.5675 59.3161 45.8494 56.9655 43.4558L35.5607 21.6541L14.021 43.4986C12.4456 45.0963 10.3514 45.9429 8.21478 45.9429H8.21285Z" fill="#FF6719"/>
</svg>
