<svg width="32" height="32" viewBox="0 0 32 32" fill="none" xmlns="http://www.w3.org/2000/svg">
<g clip-path="url(#clip0_21_9)">
<path d="M25.0919 0.043335H7.02885C3.18026 0.043335 0.0603638 3.19941 0.0603638 7.09262V24.994C0.0603638 28.8873 3.18026 32.0433 7.02885 32.0433H25.0919C28.9405 32.0433 32.0604 28.8873 32.0604 24.994V7.09262C32.0604 3.19941 28.9405 0.043335 25.0919 0.043335Z" fill="#686DF4"/>
<path d="M23.0226 13.4017C22.7173 12.9858 22.3594 12.6335 21.9642 12.3461C21.9794 12.523 21.9877 12.7012 21.9877 12.8808V16.0656C21.9877 16.447 21.6782 16.7565 21.2969 16.7565C20.9155 16.7565 20.606 16.447 20.606 16.0656C20.606 16.0698 20.5922 12.599 20.5908 12.523C20.5356 10.2999 18.7477 8.50223 16.5798 8.1831V6.69085C16.5798 6.3095 16.2703 6 15.889 6C15.5076 6 15.1981 6.3095 15.1981 6.69085V8.1831C12.9252 8.51883 11.1746 10.4822 11.1746 12.8463V16.2494L9.94768 17.1959C7.84612 18.8152 7.35286 21.8342 8.92247 23.9731C10.539 26.1769 13.6547 26.6079 15.8074 24.9486L21.996 20.1789C24.0976 18.5596 24.5908 15.5406 23.0212 13.4017H23.0226ZM18.3566 21.0356C18.3111 21.2056 18.2088 21.3534 18.0692 21.4612L15.0281 23.8059C13.4876 24.9941 11.2133 24.7357 10.0526 23.1758C8.92381 21.6587 9.21676 19.5047 10.72 18.3468L13.8233 15.9537C13.9629 15.846 14.1328 15.7852 14.3083 15.7838C15.3155 15.7796 16.5494 16.6805 17.3052 17.6601C18.0609 18.6397 18.6164 20.0629 18.3566 21.0356ZM16.1377 12.4249L12.5577 15.1841V12.8449C12.5577 11.0073 14.0526 9.51223 15.8903 9.51223C17.2195 9.51223 18.3691 10.2943 18.9038 11.4218C17.9325 11.4604 16.9639 11.7865 16.1377 12.4235V12.4249Z" fill="white"/>
</g>
<defs>
<clipPath id="clip0_21_9">
<rect width="32" height="32" fill="white"/>
</clipPath>
</defs>
</svg>
