<svg xmlns="http://www.w3.org/2000/svg" viewBox="0 0 32 32" aria-hidden="true">
  <rect width="32" height="32" rx="8" fill="#EAF3DE"/>
  <g transform="translate(4,4) scale(0.78)" fill="none" stroke="#3B6D11" stroke-width="1.75" stroke-linecap="round" stroke-linejoin="round">
    <path d="M7 15h-3a1 1 0 0 1 -1 -1v-8a1 1 0 0 1 1 -1h12a1 1 0 0 1 1 1v3"/>
    <path d="M7 10a1 1 0 0 1 1 -1h12a1 1 0 0 1 1 1v8a1 1 0 0 1 -1 1h-12a1 1 0 0 1 -1 -1l0 -8"/>
    <path d="M12 14a2 2 0 1 0 4 0a2 2 0 0 0 -4 0"/>
  </g>
</svg>
