<svg xmlns="http://www.w3.org/2000/svg" viewBox="0 0 32 32" aria-hidden="true">
  <rect width="32" height="32" rx="8" fill="#E8F0FE"/>
  <g transform="translate(4,3) scale(0.72)" fill="none" stroke="#1A5CDB" stroke-width="1.75" stroke-linecap="round" stroke-linejoin="round">
    <path d="M4 5a1 1 0 0 1 1 -1h4a1 1 0 0 1 1 1v4a1 1 0 0 1 -1 1h-4a1 1 0 0 1 -1 -1l0 -4"/>
    <path d="M14 5a1 1 0 0 1 1 -1h4a1 1 0 0 1 1 1v4a1 1 0 0 1 -1 1h-4a1 1 0 0 1 -1 -1l0 -4"/>
    <path d="M4 15a1 1 0 0 1 1 -1h4a1 1 0 0 1 1 1v4a1 1 0 0 1 -1 1h-4a1 1 0 0 1 -1 -1l0 -4"/>
    <path d="M14 15a1 1 0 0 1 1 -1h4a1 1 0 0 1 1 1v4a1 1 0 0 1 -1 1h-4a1 1 0 0 1 -1 -1l0 -4"/>
  </g>
  <text x="16" y="28" text-anchor="middle" font-family="system-ui,sans-serif" font-size="11" font-weight="800" fill="#1A5CDB">G</text>
</svg>
