<svg width="331" height="53" viewBox="0 0 331 53" fill="none" xmlns="http://www.w3.org/2000/svg">
<g clip-path="url(#clip0_791719_15457)">
<g clip-path="url(#clip1_791719_15457)">
<g clip-path="url(#clip2_791719_15457)">
<path d="M20.5158 36.5458H3.69779C3.1478 36.5535 2.60616 36.4107 2.13144 36.1329C1.65672 35.8551 1.267 35.4527 1.0044 34.9694C0.720478 34.4173 0.619056 33.7893 0.714731 33.1759C0.810405 32.5624 1.09824 31.9951 1.53681 31.5557L13.2082 19.8426H4.85658C3.74908 19.8426 2.68695 19.4026 1.90384 18.6195C1.12072 17.8364 0.680774 16.7743 0.680774 15.6668H16.1834C16.7334 15.659 17.2751 15.8018 17.7498 16.0797C18.2245 16.3575 18.6142 16.7598 18.8768 17.2431C19.1607 17.7953 19.2622 18.4232 19.1665 19.0367C19.0708 19.6501 18.783 20.2174 18.3444 20.6569L6.63129 32.37H16.34C17.4475 32.37 18.5097 32.8099 19.2928 33.593C20.0759 34.3762 20.5158 35.4383 20.5158 36.5458ZM87.1303 15.3223C85.9837 15.3254 84.8507 15.5707 83.8055 16.0421C82.7603 16.5134 81.8264 17.2002 81.0649 18.0574C80.3035 17.2002 79.3696 16.5134 78.3244 16.0421C77.2792 15.5707 76.1462 15.3254 74.9996 15.3223C72.8228 15.3794 70.7545 16.2845 69.2353 17.8446C67.7162 19.4046 66.8665 21.4964 66.8672 23.6739V36.5458C67.4156 36.5458 67.9586 36.4378 68.4652 36.2279C68.9719 36.0181 69.4322 35.7105 69.82 35.3227C70.2077 34.9349 70.5153 34.4746 70.7252 33.968C70.935 33.4613 71.043 32.9183 71.043 32.37V23.5904C71.0279 22.5485 71.4158 21.5411 72.1259 20.7785C72.8359 20.0159 73.8132 19.5572 74.8534 19.4981C75.3913 19.4712 75.9291 19.5539 76.4341 19.741C76.9391 19.9282 77.4008 20.216 77.7913 20.5869C78.1817 20.9579 78.4928 21.4042 78.7056 21.899C78.9184 22.3937 79.0285 22.9265 79.0292 23.4651V32.3387C79.0292 33.4461 79.4692 34.5083 80.2523 35.2914C81.0354 36.0745 82.0976 36.5145 83.205 36.5145V23.5904C83.1892 22.557 83.5699 21.5568 84.269 20.7956C84.9681 20.0344 85.9323 19.57 86.9633 19.4981C87.4969 19.4784 88.029 19.5665 88.5279 19.7569C89.0267 19.9473 89.4821 20.2362 89.867 20.6065C90.2518 20.9767 90.5581 21.4205 90.7677 21.9117C90.9773 22.4028 91.0858 22.9311 91.0869 23.4651V32.3387C91.0869 33.4461 91.5268 34.5083 92.3099 35.2914C93.093 36.0745 94.1552 36.5145 95.2627 36.5145V23.6739C95.2634 21.4964 94.4137 19.4046 92.8946 17.8446C91.3754 16.2845 89.3071 15.3794 87.1303 15.3223V15.3223ZM41.6036 26.1063C41.5974 28.2316 40.9615 30.3074 39.7763 32.0716C38.591 33.8357 36.9095 35.2091 34.9442 36.0181C32.9788 36.8271 30.8178 37.0356 28.7341 36.6172C26.6503 36.1988 24.7373 35.1722 23.2366 33.6672C21.736 32.1622 20.715 30.2462 20.3026 28.1612C19.8903 26.0762 20.105 23.9158 20.9198 21.9529C21.7345 19.9899 23.1127 18.3124 24.8803 17.1323C26.6479 15.9521 28.7256 15.3223 30.8509 15.3223C32.2653 15.3236 33.6654 15.6037 34.9714 16.1466C36.2774 16.6894 37.4636 17.4843 38.4623 18.4858C39.4609 19.4873 40.2523 20.6758 40.7913 21.9834C41.3303 23.291 41.6064 24.692 41.6036 26.1063ZM37.4278 26.1063C37.4278 24.8055 37.0421 23.5339 36.3194 22.4523C35.5967 21.3708 34.5696 20.5278 33.3678 20.03C32.166 19.5322 30.8436 19.402 29.5679 19.6558C28.2921 19.9095 27.1202 20.5359 26.2004 21.4557C25.2806 22.3755 24.6542 23.5474 24.4004 24.8232C24.1467 26.099 24.2769 27.4214 24.7747 28.6231C25.2725 29.8249 26.1155 30.8521 27.197 31.5748C28.2786 32.2974 29.5502 32.6832 30.8509 32.6832C32.5944 32.6804 34.2656 31.9866 35.4985 30.7538C36.7313 29.521 37.4251 27.8497 37.4278 26.1063ZM64.7793 26.1063C64.7731 28.2316 64.1372 30.3074 62.952 32.0716C61.7667 33.8357 60.0852 35.2091 58.1199 36.0181C56.1545 36.8271 53.9935 37.0356 51.9098 36.6172C49.826 36.1988 47.913 35.1722 46.4123 33.6672C44.9117 32.1622 43.8907 30.2462 43.4783 28.1612C43.066 26.0762 43.2807 23.9158 44.0955 21.9529C44.9102 19.9899 46.2884 18.3124 48.056 17.1323C49.8236 15.9521 51.9013 15.3223 54.0266 15.3223C55.4409 15.3236 56.8411 15.6037 58.1471 16.1466C59.4531 16.6894 60.6393 17.4843 61.638 18.4858C62.6366 19.4873 63.428 20.6758 63.967 21.9834C64.506 23.291 64.7821 24.692 64.7793 26.1063ZM60.6035 26.1063C60.6035 24.8055 60.2178 23.5339 59.4951 22.4523C58.7724 21.3708 57.7453 20.5278 56.5435 20.03C55.3417 19.5322 54.0193 19.402 52.7435 19.6558C51.4678 19.9095 50.2959 20.5359 49.3761 21.4557C48.4563 22.3755 47.8299 23.5474 47.5761 24.8232C47.3223 26.099 47.4526 27.4214 47.9504 28.6231C48.4482 29.8249 49.2911 30.8521 50.3727 31.5748C51.4543 32.2974 52.7258 32.6832 54.0266 32.6832C55.7701 32.6804 57.4413 31.9866 58.6741 30.7538C59.907 29.521 60.6008 27.8497 60.6035 26.1063Z" fill="#221E1F"/>
</g>
</g>
</g>
<defs>
<clipPath id="clip0_791719_15457">
<rect width="330" height="53" fill="white" transform="translate(0.660156)"/>
</clipPath>
<clipPath id="clip1_791719_15457">
<rect width="100" height="22.5806" fill="white" transform="translate(0.660156 15)"/>
</clipPath>
<clipPath id="clip2_791719_15457">
<rect width="94.5819" height="21.5054" fill="white" transform="translate(0.679688 15.3223)"/>
</clipPath>
</defs>
</svg>
