<svg xmlns="http://www.w3.org/2000/svg" width="180" height="180" fill="none"><g clip-path="url(#a)"><path fill="#FAF3EA" d="M-14-14h208v208H-14z"/><path fill="#038247" d="M121.084 57.922c0 7.408 6.061 13.469 13.469 13.469 7.408 0 13.469-6.061 13.469-13.47 0-7.407-6.061-13.468-13.469-13.468-7.408 0-13.469 6.06-13.469 13.469Zm-5.657 81.622v-.135c0-2.828 1.617-4.579 5.388-5.792 3.771-1.347 4.714-2.289 4.714-7.273v-24.648c0-4.984-1.347-5.657-5.118-6.87-3.098-.942-4.984-2.424-4.984-4.713 0-1.886 1.213-3.368 2.963-4.041l19.531-7.004c4.31-1.616 7.677.539 7.677 4.445v42.831c0 4.984.943 5.926 4.714 7.273 3.771 1.213 5.388 2.964 5.388 5.792v.135c0 2.694-2.155 4.579-5.388 4.579h-29.497c-3.233 0-5.388-1.885-5.388-4.579ZM65.053 68.427c0-17.24 2.425-22.897 9.832-22.897 9.025 0 14.278 8.755 14.278 23.706 0 14.95-5.119 23.974-13.47 23.974-8.35 0-10.64-6.6-10.64-24.783ZM27.205 139.41v.135c0 2.694 2.155 4.579 5.388 4.579H76.77c3.233 0 5.388-1.885 5.388-4.579v-.135c0-2.559-1.482-4.445-5.253-5.253-9.428-2.155-10.64-3.098-10.64-8.351v-19.26c0-2.425 1.077-4.041 3.367-4.041s4.175 1.078 8.35 1.078c21.82 0 37.31-14.547 37.31-35.02 0-20.473-14.547-33.672-35.29-33.672-11.313 0-19.664 4.175-30.574 4.175H32.593c-3.233 0-5.388 1.886-5.388 4.58v.134c0 2.829 1.616 4.58 5.388 5.522 6.734 1.617 7.677 2.56 7.677 7.543v69.5c0 4.984-.943 5.926-7.677 7.543-3.772.943-5.388 2.694-5.388 5.522Z"/></g><defs><clipPath id="a"><rect width="180" height="180" fill="#fff" rx="45"/></clipPath></defs></svg>