<svg height="59" viewBox="0 0 202.091 59" width="202.091" xmlns="http://www.w3.org/2000/svg" xmlns:xlink="http://www.w3.org/1999/xlink"><clipPath id="a"><path d="m0 0h202.091v59h-202.091z"/></clipPath><g clip-path="url(#a)"><g fill="#474645"><path d="m173.385 44.4a11.066 11.066 0 0 0 -6.965-2.1 9.528 9.528 0 0 0 -5.617 1.561 11.7 11.7 0 0 0 -2.62 2.861v-3.76h-6.983v25.733h7.21v-13.953a9.478 9.478 0 0 1 .7-3.926 5.013 5.013 0 0 1 5-2.908q2.962 0 4.018 1.986a6.8 6.8 0 0 1 .577 3.122v15.679h7.387v-17.358q0-4.848-2.708-6.941" transform="translate(-42.632 -11.927)"/><path d="m221.791 44.4a11.065 11.065 0 0 0 -6.966-2.093 9.525 9.525 0 0 0 -5.617 1.561 11.7 11.7 0 0 0 -2.62 2.861v-3.76h-6.982v25.726h7.21v-13.953a9.478 9.478 0 0 1 .7-3.926 5.015 5.015 0 0 1 5-2.908q2.962 0 4.018 1.986a6.8 6.8 0 0 1 .577 3.122v15.679h7.389v-17.358q0-4.848-2.708-6.941" transform="translate(-56.281 -11.927)"/><path d="m269.721 63.142v-12.822q0-4.658-3.531-6.337a18.6 18.6 0 0 0 -8.08-1.679q-6.988 0-9.859 3.4a9.453 9.453 0 0 0 -2.032 5.558h6.957a4.7 4.7 0 0 1 1.024-2.362 4.787 4.787 0 0 1 3.668-1.182 7.991 7.991 0 0 1 3.5.6 2.231 2.231 0 0 1 1.193 2.188 2.05 2.05 0 0 1 -1.555 1.916 12.087 12.087 0 0 1 -2.88.591l-2.472.284a18.572 18.572 0 0 0 -6.371 1.656 7.24 7.24 0 0 0 -3.951 6.882 6.885 6.885 0 0 0 2.456 5.663 9.536 9.536 0 0 0 6.221 2 11.041 11.041 0 0 0 5.293-1.253 14.773 14.773 0 0 0 3.461-2.578 4.851 4.851 0 0 0 2.836 3.178c2.477 1.178 5.665-.151 5.665-.151v-2.894c-1.239-.447-1.543-1.2-1.543-2.659m-7.185-4.474q-.078 3.382-2.067 4.659a7.905 7.905 0 0 1 -4.354 1.277 4.136 4.136 0 0 1 -2.53-.769 2.9 2.9 0 0 1 -1.04-2.495 3.043 3.043 0 0 1 1.7-2.861 11.365 11.365 0 0 1 3.314-.923l1.642-.284a12.5 12.5 0 0 0 1.937-.461 8.232 8.232 0 0 0 1.4-.651z" transform="translate(-69.174 -11.928)"/><path d="m0 0h7.311v25.776h-7.311z" transform="translate(91.323 30.991)"/><path d="m130.807 27.305a3.735 3.735 0 1 0 3.735 3.735 3.735 3.735 0 0 0 -3.735-3.735" transform="translate(-35.829 -7.699)"/><path d="m104.032 43.864a11.7 11.7 0 0 0 -2.62 2.861v-3.76h-6.982v25.73h7.21v-13.058a9.474 9.474 0 0 1 .7-3.926c.9-1.939 2.576-2.736 5-2.909a6.942 6.942 0 0 1 3.083.352v-6.827c-.255-.012-.511-.024-.775-.024a9.528 9.528 0 0 0 -5.617 1.561" transform="translate(-26.625 -11.927)"/><path d="m49.889 0a9.52 9.52 0 0 0 -9.224 7.23l-10.884-1.563a4.473 4.473 0 1 0 -8.143 2.853l-13.401 14.268a5.337 5.337 0 1 0 -.92 9.424l9.163 14.637a6.882 6.882 0 1 0 6.9-1.141 71.2 71.2 0 0 1 9.093-19.908 39.921 39.921 0 0 0 12.192-8.343 9.509 9.509 0 1 0 5.224-17.457m-29.289 45.251a6.828 6.828 0 0 0 -2.517.592l-9.161-14.643a5.34 5.34 0 0 0 1.478-2.262q2.641.256 5.095.254a46.031 46.031 0 0 0 6.7-.482zm-9.943-18.2a5.3 5.3 0 0 0 -1.045-2.962l13.411-14.271a4.479 4.479 0 0 0 .938.429l-1.583 16.5a46.329 46.329 0 0 1 -11.717.3m12.263 13.878 1.2-12.543a40.266 40.266 0 0 0 5.355-1.429 72.478 72.478 0 0 0 -6.558 13.972m8.343-16.7a38.011 38.011 0 0 1 -6.948 2.165l1.53-15.96a4.481 4.481 0 0 0 3.663-2.883l10.891 1.56c-.006.136-.021.269-.021.406a9.442 9.442 0 0 0 .9 4.016 47.838 47.838 0 0 0 -10.012 10.693m3.694-1.8a44.111 44.111 0 0 1 7.3-7.257 9.583 9.583 0 0 0 .921 1.08 38.609 38.609 0 0 1 -8.217 6.177"/></g><path d="m36.833 7.322a2.579 2.579 0 1 1 -2.579-2.579 2.579 2.579 0 0 1 2.579 2.579" fill="#dc3a86" transform="translate(-8.931 -1.337)"/><path d="m74.106 10.257a7.616 7.616 0 1 1 -7.616-7.616 7.616 7.616 0 0 1 7.616 7.616" fill="#00675e" transform="translate(-16.6 -.744)"/><path d="m9.522 36.616a3.44 3.44 0 1 1 -3.441-3.441 3.441 3.441 0 0 1 3.441 3.441" fill="#00a2e9" transform="translate(-.745 -9.354)"/><path d="m32.133 70.626a4.986 4.986 0 1 1 -4.986-4.986 4.986 4.986 0 0 1 4.986 4.986" fill="#ecdf1b" transform="translate(-6.249 -18.507)"/></g></svg>